<svg xmlns="http://www.w3.org/2000/svg" width="29.823" height="53.638" viewBox="0 0 29.823 53.638"><g transform="translate(29.823) rotate(90)"><g transform="translate(0 0)"><path d="M46.273,0c-2.11,0-3.151,2.258-3.988,4.074-.847,1.837-1.421,2.963-2.5,2.963s-1.653-1.126-2.5-2.963C36.448,2.258,35.407,0,33.3,0s-3.151,2.258-3.988,4.074c-.847,1.837-1.42,2.963-2.5,2.963s-1.652-1.126-2.5-2.963C23.476,2.258,22.434,0,20.326,0s-3.15,2.26-3.986,4.075c-.846,1.836-1.419,2.961-2.5,2.961s-1.651-1.126-2.5-2.961C10.508,2.258,9.467,0,7.359,0S4.21,2.258,3.373,4.075C2.527,5.911,1.954,7.037.875,7.037.392,7.037,0,7.562,0,8.209S.392,9.382.875,9.382c2.108,0,3.149-2.258,3.986-4.074.845-1.837,1.419-2.963,2.5-2.963s1.651,1.126,2.5,2.963c.837,1.816,1.878,4.074,3.986,4.074s3.149-2.258,3.985-4.074c.846-1.837,1.419-2.963,2.5-2.963s1.652,1.126,2.5,2.963c.837,1.816,1.878,4.074,3.987,4.074s3.15-2.258,3.988-4.074c.845-1.837,1.419-2.963,2.5-2.963s1.652,1.126,2.5,2.963c.836,1.816,1.878,4.074,3.987,4.074s3.152-2.258,3.989-4.074c.847-1.837,1.421-2.963,2.5-2.963s1.654,1.126,2.5,2.963c.837,1.816,1.879,4.074,3.989,4.074.483,0,.874-.524.874-1.173s-.391-1.173-.874-1.173c-1.08,0-1.654-1.126-2.5-2.963C49.425,2.258,48.384,0,46.273,0Z" transform="translate(0 20.442)" fill="#ec5aca"/><path d="M46.273,0c-2.11,0-3.151,2.26-3.988,4.074-.847,1.838-1.421,2.964-2.5,2.964s-1.653-1.126-2.5-2.963C36.448,2.26,35.407,0,33.3,0s-3.151,2.26-3.988,4.075c-.847,1.837-1.42,2.963-2.5,2.963s-1.652-1.126-2.5-2.963C23.476,2.26,22.434,0,20.326,0s-3.15,2.261-3.986,4.075c-.846,1.837-1.419,2.963-2.5,2.963s-1.651-1.126-2.5-2.963C10.508,2.26,9.467,0,7.359,0S4.21,2.26,3.373,4.075C2.527,5.912,1.954,7.038.875,7.038.392,7.038,0,7.562,0,8.211S.392,9.383.875,9.383c2.108,0,3.149-2.26,3.986-4.075.845-1.836,1.419-2.961,2.5-2.961s1.651,1.126,2.5,2.961c.837,1.816,1.878,4.075,3.986,4.075s3.149-2.26,3.985-4.075c.846-1.836,1.419-2.961,2.5-2.961s1.652,1.126,2.5,2.961c.837,1.816,1.878,4.075,3.987,4.075s3.15-2.26,3.988-4.075c.845-1.836,1.419-2.961,2.5-2.961s1.652,1.126,2.5,2.961c.836,1.816,1.878,4.075,3.987,4.075s3.152-2.26,3.989-4.075c.847-1.836,1.421-2.961,2.5-2.961s1.654,1.126,2.5,2.961c.837,1.816,1.879,4.075,3.989,4.075.483,0,.874-.526.874-1.173s-.391-1.173-.874-1.173c-1.08,0-1.654-1.126-2.5-2.963C49.425,2.26,48.384,0,46.273,0Z" transform="translate(0 10.219)" fill="#ec5aca"/><path d="M46.273,0c-2.11,0-3.151,2.258-3.988,4.074-.847,1.837-1.421,2.963-2.5,2.963s-1.653-1.126-2.5-2.963C36.448,2.258,35.407,0,33.3,0s-3.151,2.258-3.988,4.074c-.847,1.837-1.42,2.963-2.5,2.963s-1.652-1.126-2.5-2.963C23.476,2.258,22.434,0,20.326,0s-3.15,2.258-3.986,4.074c-.846,1.837-1.419,2.963-2.5,2.963s-1.651-1.126-2.5-2.963C10.508,2.258,9.467,0,7.359,0S4.21,2.258,3.373,4.074C2.527,5.911,1.954,7.037.875,7.037.392,7.037,0,7.561,0,8.209S.392,9.382.875,9.382c2.108,0,3.149-2.26,3.986-4.075.845-1.836,1.419-2.961,2.5-2.961s1.651,1.126,2.5,2.961c.837,1.816,1.878,4.075,3.986,4.075s3.149-2.26,3.985-4.074c.846-1.837,1.419-2.963,2.5-2.963s1.652,1.126,2.5,2.963c.837,1.814,1.878,4.074,3.987,4.074s3.15-2.26,3.988-4.074c.845-1.837,1.419-2.963,2.5-2.963s1.652,1.126,2.5,2.963c.836,1.814,1.878,4.074,3.987,4.074s3.152-2.26,3.989-4.074c.847-1.837,1.421-2.963,2.5-2.963s1.654,1.126,2.5,2.963c.837,1.814,1.879,4.074,3.989,4.074.483,0,.874-.526.874-1.173s-.391-1.173-.874-1.173c-1.08,0-1.654-1.126-2.5-2.963C49.425,2.258,48.384,0,46.273,0Z" fill="#ec5aca"/></g></g></svg>